<svg width="126" height="141" viewBox="0 0 126 141" fill="none" xmlns="http://www.w3.org/2000/svg">
<path d="M124.701 52.7L124.701 0L72.001 -1.51707e-06C72.001 29.1 95.6012 52.7 124.701 52.7Z" fill="#111213"/>
<path fill-rule="evenodd" clip-rule="evenodd" d="M72.3623 41.9818L72.3628 41.9814C57.7964 16.7517 25.5344 8.10711 0.304688 22.6735L26.6781 68.3533L26.6777 68.3532L26.6785 68.3545L26.6781 68.3547L26.6787 68.3548L53.0529 114.036L53.2049 113.948L53.4014 114.289L53.4008 114.289C67.9672 139.519 100.229 148.163 125.459 133.597L99.0855 87.9171L99.0859 87.9172L99.0852 87.9159L99.0855 87.9157L99.085 87.9155L72.7107 42.2344L72.5587 42.3221L72.3623 41.9818Z" fill="#111213"/>
</svg>
