<svg width="125" height="57" viewBox="0 0 125 57" fill="none" xmlns="http://www.w3.org/2000/svg">
<path d="M0.896283 29.1184C0.322916 29.6824 0 30.4529 0 31.2572V53.5C0 55.1569 1.34315 56.5 3 56.5H29.2406C30.0461 56.5 30.8179 56.176 31.382 55.601L44.8586 41.8653C46.74 39.9476 50 41.2798 50 43.9663V53.5C50 55.1569 51.3431 56.5 53 56.5H97.2406C98.0461 56.5 98.8179 56.176 99.382 55.601L123.641 30.8751C124.192 30.3142 124.5 29.5598 124.5 28.7741V3C124.5 1.34315 123.157 0 121.5 0H111.743C110.947 0 110.184 0.316071 109.621 0.87868L101.621 8.87868C99.7314 10.7686 96.5 9.43007 96.5 6.75736V3C96.5 1.34315 95.1569 0 93.5 0H81.7281C80.9411 0 80.1855 0.309303 79.6244 0.861221L61.6037 18.5865C59.7068 20.4523 56.5 19.1085 56.5 16.4477V3C56.5 1.34315 55.1569 0 53.5 0H31.7281C30.9411 0 30.1855 0.309303 29.6244 0.861222L0.896283 29.1184Z" fill="white"/>
</svg>
