<svg width="103" height="106" viewBox="0 0 103 106" fill="none" xmlns="http://www.w3.org/2000/svg">
<path id="theme-toggle" fill-rule="evenodd" clip-rule="evenodd" d="M68.4528 69.8544C59.9646 78.3831 54.9692 87.1556 52.6543 97.6743C52.2888 99.3395 51.842 101.898 51.6796 103.36L51.3953 106L50.6643 101.411C49.2834 92.5165 45.6282 83.8253 40.4298 76.8805C35.678 70.5448 28.6114 64.2092 22.0321 60.351C16.6305 57.1831 7.93935 54.2184 2.41598 53.5686C-0.0614189 53.2843 -0.914292 52.5939 1.19758 52.5939C2.98456 52.5939 7.89874 51.4973 11.5945 50.2789C28.8957 44.5931 43.4351 29.9318 48.7554 12.7931C49.4459 10.6812 50.2987 6.94483 50.7049 4.46743L51.4359 0L51.7202 2.88353C52.5325 11.4123 56.4313 21.2 62.1577 29.1602C66.9907 35.8207 76.0068 43.4559 83.642 47.3142C88.7593 49.8728 97.8566 52.5939 101.309 52.5939C101.877 52.5939 102.446 52.7969 102.568 53C102.73 53.2437 102.283 53.4061 101.471 53.4061C100.74 53.4061 98.5876 53.7716 96.6788 54.1778C85.7133 56.6146 76.5348 61.7318 68.4528 69.8544Z" fill="var(--primary-text-color)"/>
</svg>
